<svg xmlns="http://www.w3.org/2000/svg" width="19" height="21">
    <defs>
        <filter id="a">
            <feFlood flood-color="#FFF" flood-opacity="1" result="floodOut"/>
            <feComposite operator="atop" in="floodOut" in2="SourceGraphic" result="compOut"/>
            <feBlend in="compOut" in2="SourceGraphic"/>
        </filter>
    </defs>
    <g filter="url(#a)">
        <path fill-rule="evenodd" opacity=".702" fill="#FFF" d="M18.993 11.308c0 2.678-2.125 4.849-4.747 4.849-1.554 0-2.914-.775-3.774-1.957l-.023.017-.949-1.293-.95 1.293-.013-.01c-.866 1.177-2.231 1.95-3.784 1.95-2.621 0-4.746-2.171-4.746-4.849 0-1.092.366-2.09.962-2.9l-.013-.01S7.918-.008 9.5-.008c1.582 0 8.543 8.406 8.543 8.406l-.013.01c.596.81.963 1.808.963 2.9zM7.918 17.773v-1.616c0-.892.708-1.617 1.582-1.617.874 0 1.582.725 1.582 1.617v1.616c.874 0 1.582.724 1.582 1.617 0 .892-.708 1.617-1.582 1.617H7.918c-.874 0-1.582-.725-1.582-1.617 0-.893.708-1.617 1.582-1.617z"/>
    </g>
</svg>
